<?xml version="1.0" standalone="no"?>
<!DOCTYPE svg PUBLIC "-//W3C//DTD SVG 20010904//EN"
 "http://www.w3.org/TR/2001/REC-SVG-20010904/DTD/svg10.dtd">
<svg version="1.0" xmlns="http://www.w3.org/2000/svg"
 width="157.000000pt" height="195.000000pt" viewBox="0 0 157.000000 195.000000"
 preserveAspectRatio="xMidYMid meet">

<g transform="translate(0.000000,195.000000) scale(0.100000,-0.100000)"
fill="#000000" stroke="none">
<path d="M0 975 l0 -975 785 0 785 0 0 975 0 975 -785 0 -785 0 0 -975z m1080
757 c0 -4 -16 -47 -35 -96 -19 -49 -34 -90 -32 -92 1 -1 29 -18 62 -37 99 -58
164 -134 150 -176 -3 -10 17 -43 51 -85 55 -68 114 -162 114 -181 0 -5 -31
-27 -68 -48 -38 -22 -83 -52 -100 -68 -17 -16 -33 -29 -35 -29 -10 0 6 97 20
119 14 22 13 26 -49 85 -70 69 -129 96 -206 96 -97 0 -282 59 -282 90 0 5 24
10 53 10 l52 1 -32 29 c-58 52 -192 82 -448 98 l-120 8 60 18 c102 32 364 8
540 -49 11 -3 -2 6 -29 20 -73 40 -224 74 -378 87 -76 7 -132 16 -125 20 20
13 108 36 180 48 38 6 138 11 222 11 l154 0 133 64 c137 66 148 70 148 57z
m-537 -343 c33 -6 70 -14 83 -20 l25 -9 -28 -47 c-24 -40 -28 -59 -28 -118 0
-85 30 -155 97 -230 50 -55 62 -76 90 -150 l19 -50 -4 61 c-3 37 -17 90 -36
135 -41 98 -40 119 10 174 76 83 190 98 285 39 90 -56 127 -125 117 -218 -9
-77 -39 -62 -159 78 -42 48 -83 49 -129 3 l-33 -33 15 -74 c22 -109 22 -324
-1 -430 -19 -92 -68 -257 -90 -305 -13 -28 -14 -21 -15 88 -1 64 -8 163 -16
220 -17 111 -62 307 -75 320 -13 14 -30 -53 -30 -119 0 -35 -4 -64 -9 -64 -33
0 -121 163 -197 362 l-48 128 -28 -51 c-38 -71 -49 -83 -59 -67 -16 26 -21
117 -9 174 7 33 29 96 51 142 l38 83 53 -6 c29 -4 79 -11 111 -16z"/>
</g>
</svg>
